<svg width="312" height="104" viewBox="0 0 312 104" fill="none" xmlns="http://www.w3.org/2000/svg">
<g clip-path="url(#clip0)">
<path d="M100.168 47.9972C98.5824 41.8864 93.8011 37.8977 85.3125 37.8977C76.4403 37.8977 70.1506 42.5767 70.1506 49.5312C70.1506 55.1051 73.5256 58.8125 80.8892 60.4489L87.5369 61.9062C91.321 62.75 93.0852 64.4375 93.0852 66.892C93.0852 69.9347 89.8381 72.3125 84.8267 72.3125C80.25 72.3125 77.3097 70.3438 76.3892 66.483L69 67.608C70.2784 74.5625 76.0568 78.4744 84.8778 78.4744C94.3636 78.4744 100.935 73.4375 100.935 66.3295C100.935 60.7813 97.4062 57.3551 90.196 55.6932L83.9574 54.2614C79.6364 53.2386 77.7699 51.7813 77.7955 49.1222C77.7699 46.1051 81.0426 43.9574 85.3892 43.9574C90.1449 43.9574 92.3438 46.5909 93.2386 49.2244L100.168 47.9972Z" fill="#E7E9ED"/>
<path d="M127.673 38.4091H119.619V29H111.974V38.4091H106.221V44.5455H111.974V67.7358C111.948 74.8693 117.394 78.321 123.428 78.1932C125.857 78.1676 127.494 77.7074 128.388 77.375L127.008 71.0597C126.496 71.1619 125.55 71.392 124.323 71.392C121.843 71.392 119.619 70.5739 119.619 66.1506V44.5455H127.673V38.4091Z" fill="#E7E9ED"/>
<path d="M147.558 78.5511C154.053 78.5511 157.709 75.2528 159.166 72.3125H159.473V77.6818H166.939V51.6023C166.939 40.1733 157.939 37.8977 151.7 37.8977C144.592 37.8977 138.047 40.7614 135.49 47.9205L142.675 49.5568C143.8 46.7699 146.663 44.0852 151.803 44.0852C156.737 44.0852 159.268 46.6676 159.268 51.1165V51.2955C159.268 54.0824 156.405 54.0312 149.348 54.8494C141.908 55.7187 134.288 57.6619 134.288 66.5852C134.288 74.3068 140.092 78.5511 147.558 78.5511ZM149.22 72.4148C144.899 72.4148 141.78 70.4716 141.78 66.6875C141.78 62.5966 145.411 61.1392 149.834 60.5511C152.314 60.2187 158.195 59.554 159.294 58.4545V63.517C159.294 68.1705 155.587 72.4148 149.22 72.4148Z" fill="#E7E9ED"/>
<path d="M177.121 77.6818H184.766V53.6989C184.766 48.5597 188.729 44.8523 194.15 44.8523C195.735 44.8523 197.525 45.1335 198.138 45.3125V38C197.371 37.8977 195.863 37.821 194.891 37.821C190.289 37.821 186.352 40.429 184.92 44.6477H184.511V38.4091H177.121V77.6818Z" fill="#E7E9ED"/>
<path d="M225.407 38.4091H217.353V29H209.708V38.4091H203.955V44.5455H209.708V67.7358C209.683 74.8693 215.129 78.321 221.163 78.1932C223.592 78.1676 225.228 77.7074 226.123 77.375L224.742 71.0597C224.231 71.1619 223.285 71.392 222.058 71.392C219.577 71.392 217.353 70.5739 217.353 66.1506V44.5455H225.407V38.4091Z" fill="#E7E9ED"/>
<path d="M282.206 44.6113C281.7 44.4426 281.194 44.2832 280.688 44.1332C280.772 43.7863 280.847 43.4395 280.922 43.0926C282.075 37.5051 281.316 33.0145 278.756 31.5332C276.291 30.1176 272.269 31.5895 268.2 35.1332C267.797 35.4801 267.403 35.8457 267.028 36.2113C266.775 35.9676 266.512 35.7238 266.25 35.4895C261.984 31.702 257.709 30.1082 255.15 31.5988C252.694 33.0238 251.962 37.252 252.994 42.5395C253.097 43.0645 253.209 43.5801 253.341 44.1051C252.741 44.2738 252.15 44.4613 251.597 44.6582C246.591 46.3926 243 49.1301 243 51.9613C243 54.8863 246.825 57.8207 252.028 59.602C252.45 59.7426 252.872 59.8832 253.303 60.0051C253.163 60.5676 253.041 61.1207 252.928 61.6926C251.944 66.8957 252.713 71.0207 255.169 72.4363C257.7 73.8988 261.956 72.3988 266.1 68.7707C266.428 68.4801 266.756 68.1801 267.084 67.8613C267.497 68.2645 267.928 68.6488 268.359 69.0238C272.372 72.4738 276.338 73.8707 278.784 72.4551C281.316 70.9926 282.141 66.5582 281.072 61.1582C280.988 60.7457 280.894 60.3238 280.791 59.8926C281.091 59.8082 281.381 59.7145 281.672 59.6207C287.081 57.8301 291 54.9332 291 51.9613C291 49.1207 287.306 46.3645 282.206 44.6113V44.6113ZM269.522 36.652C273.009 33.6145 276.263 32.4238 277.744 33.277C279.328 34.1863 279.937 37.8613 278.944 42.6895C278.878 43.0082 278.813 43.3176 278.728 43.627C276.647 43.1582 274.537 42.8207 272.419 42.6332C271.2 40.8895 269.869 39.2207 268.425 37.6551C268.791 37.3082 269.147 36.9801 269.522 36.652V36.652ZM258.675 56.827C259.153 57.6426 259.641 58.4582 260.156 59.2551C258.694 59.0957 257.241 58.8613 255.806 58.552C256.219 57.202 256.734 55.8051 257.334 54.3801C257.766 55.2051 258.206 56.0207 258.675 56.827V56.827ZM255.834 45.5488C257.184 45.2488 258.619 45.0051 260.109 44.8176C259.612 45.5957 259.125 46.3926 258.666 47.1988C258.206 47.9957 257.756 48.8113 257.334 49.6363C256.744 48.2395 256.247 46.8707 255.834 45.5488ZM258.403 52.0082C259.022 50.7145 259.697 49.4488 260.409 48.202C261.122 46.9551 261.891 45.7457 262.697 44.5551C264.103 44.452 265.537 44.3957 267 44.3957C268.463 44.3957 269.906 44.452 271.303 44.5551C272.1 45.7363 272.859 46.9457 273.581 48.1832C274.303 49.4207 274.978 50.6863 275.616 51.9707C274.987 53.2645 274.312 54.5395 273.591 55.7957C272.878 57.0426 272.119 58.252 271.322 59.452C269.925 59.5551 268.472 59.602 267 59.602C265.528 59.602 264.103 59.5551 262.725 59.4707C261.909 58.2801 261.141 57.0613 260.419 55.8145C259.697 54.5676 259.031 53.302 258.403 52.0082ZM275.334 56.8082C275.812 55.9832 276.263 55.1488 276.703 54.3051C277.303 55.6645 277.828 57.0426 278.287 58.4582C276.834 58.7863 275.362 59.0395 273.881 59.2082C274.387 58.4207 274.866 57.6145 275.334 56.8082ZM276.684 49.6363C276.244 48.8113 275.794 47.9863 275.325 47.1801C274.866 46.3832 274.388 45.5957 273.891 44.8176C275.4 45.0051 276.844 45.2582 278.194 45.5676C277.762 46.9551 277.256 48.3051 276.684 49.6363V49.6363ZM267.019 39.0895C268.003 40.1582 268.931 41.2832 269.794 42.4457C267.937 42.3613 266.072 42.3613 264.216 42.4457C265.134 41.2363 266.081 40.1113 267.019 39.0895ZM256.144 33.3426C257.719 32.4238 261.216 33.7363 264.9 36.9988C265.134 37.2051 265.369 37.4301 265.612 37.6551C264.159 39.2207 262.819 40.8895 261.591 42.6332C259.472 42.8207 257.372 43.1488 255.291 43.6082C255.169 43.1301 255.066 42.6426 254.962 42.1551C254.081 37.6176 254.662 34.1957 256.144 33.3426V33.3426ZM253.847 58.0551C253.453 57.9426 253.069 57.8207 252.684 57.6895C250.688 57.0613 248.419 56.0676 246.778 54.7645C245.831 54.1082 245.194 53.0957 245.016 51.9613C245.016 50.2457 247.978 48.052 252.253 46.5613C252.787 46.3738 253.331 46.2051 253.875 46.0457C254.513 48.0801 255.281 50.077 256.172 52.0082C255.272 53.9676 254.494 55.9926 253.847 58.0551V58.0551ZM264.778 67.2426C263.231 68.6582 261.441 69.7832 259.491 70.552C258.45 71.0488 257.25 71.0957 256.181 70.6738C254.691 69.8113 254.072 66.502 254.916 62.0488C255.019 61.5238 255.131 60.9988 255.263 60.4832C257.363 60.9332 259.481 61.2426 261.628 61.402C262.866 63.1551 264.225 64.8332 265.678 66.4082C265.378 66.6988 265.078 66.9801 264.778 67.2426ZM267.075 64.9645C266.119 63.9332 265.162 62.7895 264.234 61.5613C265.134 61.5988 266.062 61.6176 267 61.6176C267.966 61.6176 268.912 61.5988 269.85 61.552C268.987 62.7426 268.059 63.877 267.075 64.9645V64.9645ZM279.328 67.777C279.244 68.9207 278.681 69.9895 277.781 70.7113C276.291 71.5738 273.113 70.4488 269.681 67.5051C269.288 67.1676 268.894 66.802 268.491 66.427C269.925 64.8426 271.247 63.1645 272.447 61.402C274.594 61.2238 276.731 60.8957 278.841 60.4176C278.934 60.802 279.019 61.1863 279.094 61.5613C279.553 63.5863 279.628 65.6957 279.328 67.777V67.777ZM281.034 57.6988C280.772 57.7832 280.509 57.8676 280.238 57.9426C279.581 55.8988 278.775 53.902 277.847 51.9613C278.747 50.0488 279.506 48.0801 280.144 46.0645C280.631 46.2051 281.1 46.3551 281.55 46.5051C285.919 48.0051 288.984 50.2363 288.984 51.9426C288.984 53.7801 285.713 56.152 281.034 57.6988ZM267 56.2926C269.372 56.2926 271.294 54.3707 271.294 51.9988C271.294 49.627 269.372 47.7051 267 47.7051C264.628 47.7051 262.706 49.627 262.706 51.9988C262.706 54.3707 264.628 56.2926 267 56.2926Z" fill="#E7E9ED"/>
<path d="M295 2H65C56.7157 2 50 8.71573 50 17V87C50 95.2843 56.7157 102 65 102H295C303.284 102 310 95.2843 310 87V17C310 8.71573 303.284 2 295 2Z" stroke="#E7E9ED" stroke-width="4"/>
<path d="M0 102C0 100.895 0.895431 100 2 100L36 100C37.1046 100 41 101.395 41 102.5C41 103.605 49.1046 104 48 104H2C0.895432 104 0 103.105 0 102Z" fill="#E7E9ED"/>
<path d="M48 88C48 94.6274 42.6274 100 36 100C36.0001 102 36 102 36 104C40.0846 104 63.0001 104 66 104C66 102 64 101 60 100C58 100 58 100 56 100C56 99.3566 56 99 56 97C54 97 54 97 52 97C52 93.73 52 90.2067 52 88.0001C50 88 50.0001 88 48 88Z" fill="#E7E9ED"/>
</g>
<defs>
<clipPath id="clip0">
<rect width="312" height="104" fill="white"/>
</clipPath>
</defs>
</svg>
