<svg width="312" height="104" fill="none" xmlns="http://www.w3.org/2000/svg"><g clip-path="url(#a)"><path d="M100.168 47.997c-1.586-6.11-6.367-10.1-14.856-10.1-8.872 0-15.161 4.68-15.161 11.634 0 5.574 3.375 9.282 10.738 10.918l6.648 1.457c3.784.844 5.548 2.532 5.548 4.986 0 3.043-3.247 5.42-8.258 5.42-4.577 0-7.517-1.968-8.438-5.829L69 67.608c1.278 6.954 7.057 10.866 15.878 10.866 9.486 0 16.057-5.037 16.057-12.145 0-5.548-3.529-8.974-10.739-10.636l-6.239-1.432c-4.32-1.022-6.187-2.48-6.161-5.139-.026-3.017 3.247-5.165 7.593-5.165 4.756 0 6.955 2.634 7.85 5.267l6.929-1.227zM127.673 38.41h-8.054V29h-7.645v9.41h-5.753v6.136h5.753v23.19c-.026 7.133 5.42 10.585 11.454 10.457 2.429-.025 4.066-.486 4.96-.818l-1.38-6.315c-.512.102-1.458.332-2.685.332-2.48 0-4.704-.818-4.704-5.241V44.546h8.054v-6.137zM147.558 78.551c6.495 0 10.151-3.298 11.608-6.239h.307v5.37h7.466v-26.08c0-11.429-9-13.704-15.239-13.704-7.108 0-13.653 2.863-16.21 10.022l7.185 1.637c1.125-2.787 3.988-5.472 9.128-5.472 4.934 0 7.465 2.583 7.465 7.032v.178c0 2.787-2.863 2.736-9.92 3.554-7.44.87-15.06 2.813-15.06 11.736 0 7.722 5.804 11.966 13.27 11.966zm1.662-6.136c-4.321 0-7.44-1.943-7.44-5.728 0-4.09 3.631-5.548 8.054-6.136 2.48-.332 8.361-.997 9.46-2.096v5.062c0 4.654-3.707 8.898-10.074 8.898zM177.121 77.682h7.645V53.699c0-5.14 3.963-8.847 9.384-8.847 1.585 0 3.375.282 3.988.46V38c-.767-.102-2.275-.179-3.247-.179-4.602 0-8.539 2.608-9.971 6.827h-.409v-6.239h-7.39v39.273zM225.407 38.41h-8.054V29h-7.645v9.41h-5.753v6.136h5.753v23.19c-.025 7.133 5.421 10.585 11.455 10.457 2.429-.025 4.065-.486 4.96-.818l-1.381-6.315c-.511.102-1.457.332-2.684.332-2.481 0-4.705-.818-4.705-5.241V44.546h8.054v-6.137zM282.206 44.611a47.34 47.34 0 0 0-1.518-.478c.084-.347.159-.694.234-1.04 1.153-5.588.394-10.079-2.166-11.56-2.465-1.415-6.487.056-10.556 3.6a25.84 25.84 0 0 0-1.172 1.078 28.854 28.854 0 0 0-.778-.721c-4.266-3.788-8.541-5.382-11.1-3.891-2.456 1.425-3.188 5.653-2.156 10.94.103.526.215 1.041.347 1.566-.6.169-1.191.356-1.744.553-5.006 1.735-8.597 4.472-8.597 7.303 0 2.925 3.825 5.86 9.028 7.641.422.14.844.281 1.275.403-.14.563-.262 1.116-.375 1.688-.984 5.203-.215 9.328 2.241 10.743 2.531 1.463 6.787-.037 10.931-3.665.328-.29.656-.59.984-.91.413.403.844.788 1.275 1.163 4.013 3.45 7.979 4.847 10.425 3.431 2.532-1.462 3.357-5.897 2.288-11.297a38.646 38.646 0 0 0-.281-1.265c.3-.085.59-.178.881-.272 5.409-1.79 9.328-4.688 9.328-7.66 0-2.84-3.694-5.596-8.794-7.35zm-12.684-7.959c3.487-3.038 6.741-4.228 8.222-3.375 1.584.91 2.193 4.584 1.2 9.413-.066.318-.131.628-.216.937a47.992 47.992 0 0 0-6.309-.994 47.371 47.371 0 0 0-3.994-4.978c.366-.347.722-.675 1.097-1.003zm-10.847 20.175c.478.816.966 1.631 1.481 2.428a42.529 42.529 0 0 1-4.35-.703 43.93 43.93 0 0 1 1.528-4.172c.432.825.872 1.64 1.341 2.447zm-2.841-11.278c1.35-.3 2.785-.544 4.275-.731a54.918 54.918 0 0 0-1.443 2.38c-.46.798-.91 1.613-1.332 2.438a45.024 45.024 0 0 1-1.5-4.087zm2.569 6.46a56.858 56.858 0 0 1 4.294-7.453c1.406-.104 2.84-.16 4.303-.16s2.906.056 4.303.16a65.476 65.476 0 0 1 2.278 3.627 64.078 64.078 0 0 1 2.035 3.788 63.15 63.15 0 0 1-4.294 7.481c-1.397.103-2.85.15-4.322.15s-2.897-.047-4.275-.131a56.908 56.908 0 0 1-4.322-7.463zm16.931 4.8c.478-.826.929-1.66 1.369-2.504.6 1.36 1.125 2.738 1.584 4.153a41.173 41.173 0 0 1-4.406.75c.506-.787.985-1.593 1.453-2.4zm1.35-7.173c-.44-.825-.89-1.65-1.359-2.456a60.282 60.282 0 0 0-1.434-2.362 43.15 43.15 0 0 1 4.303.75 41.65 41.65 0 0 1-1.51 4.068zm-9.665-10.547a41.34 41.34 0 0 1 2.775 3.357 61.473 61.473 0 0 0-5.578 0 47.003 47.003 0 0 1 2.803-3.356zm-10.875-5.746c1.575-.92 5.072.393 8.756 3.656.234.206.469.431.712.656a47.624 47.624 0 0 0-4.021 4.978 49.4 49.4 0 0 0-6.3.975c-.122-.478-.225-.965-.329-1.453-.881-4.537-.3-7.96 1.182-8.812zm-2.297 24.712a24.125 24.125 0 0 1-1.163-.365c-1.996-.629-4.265-1.622-5.906-2.925a4.205 4.205 0 0 1-1.762-2.804c0-1.715 2.962-3.909 7.237-5.4a32.398 32.398 0 0 1 1.622-.515 49.868 49.868 0 0 0 2.297 5.962 51.27 51.27 0 0 0-2.325 6.047zm10.931 9.188a17.16 17.16 0 0 1-5.287 3.309 4.151 4.151 0 0 1-3.31.122c-1.49-.863-2.109-4.172-1.265-8.625.103-.525.215-1.05.347-1.566 2.1.45 4.218.76 6.365.919a49.562 49.562 0 0 0 4.05 5.006c-.3.29-.6.572-.9.835zm2.297-2.278a44.365 44.365 0 0 1-2.841-3.404c.9.038 1.828.057 2.766.057.966 0 1.912-.02 2.85-.066a40.606 40.606 0 0 1-2.775 3.413zm12.253 2.812a4.165 4.165 0 0 1-1.547 2.934c-1.49.863-4.668-.262-8.1-3.206a40.772 40.772 0 0 1-1.19-1.078 46.423 46.423 0 0 0 3.956-5.025 46.245 46.245 0 0 0 6.394-.984c.093.384.178.768.253 1.143.459 2.025.534 4.135.234 6.216zm1.706-10.078c-.262.084-.525.169-.796.244a47.762 47.762 0 0 0-2.391-5.982 47.466 47.466 0 0 0 2.297-5.896c.487.14.956.29 1.406.44 4.369 1.5 7.434 3.731 7.434 5.438 0 1.837-3.271 4.209-7.95 5.756zM267 56.293a4.293 4.293 0 1 0 0-8.588 4.293 4.293 0 1 0 0 8.588z" fill="#393F4A"/><path d="M295 2H65c-8.284 0-15 6.716-15 15v70c0 8.284 6.716 15 15 15h230c8.284 0 15-6.716 15-15V17c0-8.284-6.716-15-15-15z" stroke="#393F4A" stroke-width="4"/><path d="M0 102a2 2 0 0 1 2-2h34c1.105 0 5 1.395 5 2.5s8.105 1.5 7 1.5H2a2 2 0 0 1-2-2z" fill="#393F4A"/><path d="M48 88c0 6.627-5.373 12-12 12v4h30c0-2-2-3-6-4h-4v-3h-4v-9h-4z" fill="#393F4A"/></g><defs><clipPath id="a"><path fill="#fff" d="M0 0h312v104H0z"/></clipPath></defs></svg>